<?xml version="1.0" encoding="UTF-8" standalone="no"?>
<!-- Created with Inkscape (http://www.inkscape.org/) -->

<svg
   xmlns:dc="http://purl.org/dc/elements/1.1/"
   xmlns:cc="http://creativecommons.org/ns#"
   xmlns:rdf="http://www.w3.org/1999/02/22-rdf-syntax-ns#"
   xmlns:svg="http://www.w3.org/2000/svg"
   xmlns="http://www.w3.org/2000/svg"
   xmlns:sodipodi="http://sodipodi.sourceforge.net/DTD/sodipodi-0.dtd"
   xmlns:inkscape="http://www.inkscape.org/namespaces/inkscape"
   version="1.1"
   id="svg2"
   width="119.99999"
   height="171.89671"
   viewBox="0 0 119.99999 171.89671"
   sodipodi:docname="chicot.svg"
   inkscape:version="0.92.1 r15371">
  <metadata
     id="metadata8">
    <rdf:RDF>
      <cc:Work
         rdf:about="">
        <dc:format>image/svg+xml</dc:format>
        <dc:type
           rdf:resource="http://purl.org/dc/dcmitype/StillImage" />
        <dc:title></dc:title>
      </cc:Work>
    </rdf:RDF>
  </metadata>
  <defs
     id="defs6" />
  <sodipodi:namedview
     pagecolor="#ffffff"
     bordercolor="#666666"
     borderopacity="1"
     objecttolerance="10"
     gridtolerance="10"
     guidetolerance="10"
     inkscape:pageopacity="0"
     inkscape:pageshadow="2"
     inkscape:window-width="640"
     inkscape:window-height="480"
     id="namedview4"
     showgrid="false"
     inkscape:zoom="0.44250002"
     inkscape:cx="-398.75704"
     inkscape:cy="64.994342"
     inkscape:window-x="0"
     inkscape:window-y="0"
     inkscape:window-maximized="0"
     inkscape:current-layer="svg2" />
  <g
     id="g30"
     transform="translate(-206.66666,-180.10326)">
    <path
       style="fill:#f1a19f;stroke-width:1.33333325"
       d="m 250.27871,330.99999 c -22.23333,-33.36918 -36.14896,-59.38992 -41.48648,-77.57533 -3.86229,-13.15916 -2.11279,-28.35283 4.83541,-41.99351 3.55003,-6.96939 14.95142,-18.87672 22.06807,-23.04736 18.73709,-10.98066 43.2048,-10.98066 61.94189,0 7.11665,4.17064 18.51804,16.07797 22.06807,23.04736 9.55216,18.75276 9.19649,34.28927 -1.3408,58.56884 -10.11635,23.30964 -47.11862,81.99999 -51.69822,81.99999 -1.61209,0 -6.97371,-6.87054 -16.38794,-20.99999 z m 26.7281,-16 c 18.44672,-28.44127 30.69564,-52.22964 34.55119,-67.10112 2.14101,-8.25827 2.14123,-9.30429 0.004,-18 -2.84656,-11.58064 -9.52451,-21.51592 -18.65796,-27.75887 -6.71592,-4.59036 -19.27735,-8.80668 -26.23739,-8.80668 -6.96003,0 -19.52146,4.21632 -26.23718,8.80668 -9.13345,6.24295 -15.8114,16.17823 -18.65796,27.75887 -2.13743,8.69571 -2.13721,9.74173 0.004,18 2.51211,9.6896 9.83183,25.77309 19.16053,42.10112 8.58518,15.0266 24.48599,39.33333 25.73081,39.33333 0.57404,0 5.22711,-6.45 10.34016,-14.33333 z m -31.67349,-50.79127 c 0,-0.61853 1.2,-4.61245 2.66667,-8.8754 1.46667,-4.26294 2.65419,-8.70686 2.63892,-9.8754 -0.0152,-1.16853 -3.93867,-4.69401 -8.71869,-7.8344 -4.78003,-3.14038 -8.33214,-6.29038 -7.89358,-7 0.43858,-0.70961 5.54815,-1.2902 11.35463,-1.2902 12.04176,0 12.49577,-0.35756 16.59889,-13.07249 3.07299,-9.52273 5.73555,-8.87131 9.7476,2.38487 1.68801,4.7359 3.78983,9.06885 4.67068,9.62876 0.88085,0.55992 6.25155,1.02722 11.93488,1.03845 12.82772,0.0253 13.20167,1.49055 2.19104,8.58511 -4.46543,2.87725 -8.38839,5.93346 -8.71768,6.79161 -0.32931,0.85813 0.62948,4.67623 2.13063,8.48467 3.11112,7.89298 3.48426,12.16094 1.06268,12.15478 -0.91667,-0.003 -5.26667,-2.40042 -9.66667,-5.32909 -4.4,-2.92867 -8.48292,-5.32676 -9.07316,-5.32909 -0.59024,-0.002 -4.60732,2.39576 -8.92684,5.32909 -7.47545,5.07648 -12,6.66337 -12,4.20873 z"
       id="path44"
       inkscape:connector-curvature="0" />
    <path
       style="fill:#a1a1a1;stroke-width:1.33333325"
       d="m 249.7197,329.66665 c -29.91658,-45.27426 -43.05304,-73.04043 -43.05304,-90.99999 0,-8.8645 3.48345,-20.95291 8.38978,-29.11455 13.9174,-23.15145 40.98699,-34.25569 66.99675,-27.48278 25.16321,6.55246 44.61346,31.22735 44.61346,56.59733 0,17.5428 -14.53254,48.36593 -43.06202,91.33333 -11.52655,17.35977 -15.23839,21.99999 -17.59844,21.99999 -0.84093,0 -8.16985,-10.04999 -16.28649,-22.33333 z m 30.0299,-18.42292 c 13.64628,-21.23196 30.22436,-54.15107 32.29603,-64.13023 4.05636,-19.5394 -7.17076,-40.56056 -26.45031,-49.5244 -6.33829,-2.94692 -9.47101,-3.53138 -18.92867,-3.53138 -9.45765,0 -12.59037,0.58446 -18.92866,3.53138 -19.19515,8.9246 -30.50573,29.98948 -26.48972,49.33454 3.42515,16.49882 40.94763,83.63103 45.86601,82.05977 0.8538,-0.27276 6.53971,-8.25561 12.63532,-17.73968 z m -31.74961,-49.79177 c 0,-0.66806 1.28616,-4.57562 2.85813,-8.68344 2.76375,-7.22212 2.77836,-7.5569 0.44243,-10.13808 -1.32863,-1.46812 -5.01371,-4.31056 -8.18908,-6.31654 -3.17536,-2.00599 -5.77445,-4.09724 -5.77576,-4.64724 -0.001,-0.55 4.42415,-1 9.83436,-1 11.23808,0 11.75668,-0.36482 15.28843,-10.75506 1.32548,-3.89949 2.96456,-7.2692 3.64238,-7.48822 0.67784,-0.21903 2.73523,3.6461 4.57196,8.5892 l 3.33953,8.98741 10.32714,0.38941 c 5.67993,0.21419 10.32714,0.87924 10.32714,1.4779 0,0.59866 -3.3,3.27956 -7.33333,5.95753 -8.24829,5.47656 -8.4956,6.37948 -4.73848,17.29976 1.42717,4.14813 2.00349,7.54207 1.28073,7.54207 -0.72277,0 -4.43244,-2.1 -8.24372,-4.66667 -3.81128,-2.56667 -8.01128,-4.66667 -9.33333,-4.66667 -1.32205,0 -5.52205,2.1 -9.33333,4.66667 -7.17687,4.83317 -8.9652,5.52176 -8.9652,3.45197 z"
       id="path42"
       inkscape:connector-curvature="0" />
    <path
       style="fill:#e85d5a;stroke-width:1.33333325"
       d="m 250.19954,327.66665 c -33.59078,-50.89824 -44.8151,-77.46651 -41.12048,-97.33333 4.6264,-24.87729 23.77381,-43.74957 48.72336,-48.02325 30.53494,-5.23041 60.58719,16.48768 66.45183,48.02325 2.7275,14.66638 -2.31578,31.52774 -17.84645,59.66667 -9.71356,17.59929 -37.92587,60.66666 -39.74115,60.66666 -0.70842,0 -8.11863,-10.35 -16.46711,-23 z m 27.6483,-10.66666 c 21.21057,-32.59558 34.98679,-60.96793 36.44008,-75.049 1.29939,-12.58985 -4.63675,-26.97801 -15.14675,-36.71312 -6.92264,-6.41224 -10.70953,-8.61043 -19.15321,-11.11793 -25.49485,-7.57116 -51.80926,7.17556 -59.40044,33.28826 -4.17558,14.36351 -0.0457,29.25454 16.24986,58.59179 11.18114,20.12966 27.95709,46 29.82927,46 0.78123,0 5.81276,-6.75 11.18119,-15 z m -29.84785,-55.54803 c 0,-0.66806 1.28616,-4.57562 2.85813,-8.68344 2.76375,-7.22212 2.77836,-7.5569 0.44243,-10.13808 -1.32863,-1.46812 -5.01371,-4.31056 -8.18908,-6.31654 -3.17536,-2.00599 -5.77445,-4.09724 -5.77576,-4.64724 -0.001,-0.55 4.42415,-1 9.83436,-1 11.23808,0 11.75668,-0.36482 15.28843,-10.75506 1.32548,-3.89949 2.96456,-7.2692 3.64238,-7.48822 0.67784,-0.21903 2.73523,3.6461 4.57196,8.5892 l 3.33953,8.98741 10.32714,0.38941 c 5.67993,0.21419 10.32714,0.87924 10.32714,1.4779 0,0.59866 -3.3,3.27956 -7.33333,5.95753 -8.24829,5.47656 -8.4956,6.37948 -4.73848,17.29976 1.42717,4.14813 2.00349,7.54207 1.28073,7.54207 -0.72277,0 -4.43244,-2.1 -8.24372,-4.66667 -3.81128,-2.56667 -8.01128,-4.66667 -9.33333,-4.66667 -1.32205,0 -5.52205,2.1 -9.33333,4.66667 -7.17687,4.83317 -8.9652,5.52176 -8.9652,3.45197 z"
       id="path40"
       inkscape:connector-curvature="0" />
    <path
       style="fill:#e43834;stroke-width:1.33333325"
       d="m 250.19954,327.66665 c -33.59078,-50.89824 -44.8151,-77.46651 -41.12048,-97.33333 4.6264,-24.87729 23.77381,-43.74957 48.72336,-48.02325 30.53494,-5.23041 60.58719,16.48768 66.45183,48.02325 2.7275,14.66638 -2.31578,31.52774 -17.84645,59.66667 -9.71356,17.59929 -37.92587,60.66666 -39.74115,60.66666 -0.70842,0 -8.11863,-10.35 -16.46711,-23 z m 27.6483,-10.66666 c 21.21057,-32.59558 34.98679,-60.96793 36.44008,-75.049 1.29939,-12.58985 -4.63675,-26.97801 -15.14675,-36.71312 -6.92264,-6.41224 -10.70953,-8.61043 -19.15321,-11.11793 -25.49485,-7.57116 -51.80926,7.17556 -59.40044,33.28826 -4.17558,14.36351 -0.0457,29.25454 16.24986,58.59179 11.18114,20.12966 27.95709,46 29.82927,46 0.78123,0 5.81276,-6.75 11.18119,-15 z m -27.18118,-57.80412 c 0,-0.52883 1.03108,-4.23247 2.29129,-8.23031 l 2.29128,-7.2688 -3.40989,-2.84838 c -1.87543,-1.56662 -5.15651,-4.16506 -7.29128,-5.77431 l -3.8814,-2.92593 8.83674,-0.074 c 9.84906,-0.0825 10.34154,-0.42959 13.8237,-9.74075 1.30268,-3.48333 2.74914,-6.33333 3.21436,-6.33333 0.46521,0 2.03369,3.45 3.48551,7.66666 l 2.63968,7.66667 9.98835,0.66667 9.98833,0.66666 -6.86985,4.3963 c -3.77841,2.41796 -7.21256,5.28941 -7.63145,6.38101 -0.41888,1.09159 0.41356,5.07749 1.84986,8.85756 1.43632,3.78007 2.36788,7.11645 2.07016,7.41419 -0.29773,0.29772 -3.13349,-1.2155 -6.30169,-3.36272 -8.50196,-5.76215 -9.58317,-5.88811 -15.97218,-1.86075 -8.92622,5.62664 -9.12152,5.72736 -9.12152,4.70356 z"
       id="path38"
       inkscape:connector-curvature="0" />
    <path
       style="fill:#5d5d5d;stroke-width:1.33333325"
       d="m 250.19954,327.66665 c -33.59078,-50.89824 -44.8151,-77.46651 -41.12048,-97.33333 4.6264,-24.87729 23.77381,-43.74957 48.72336,-48.02325 30.53494,-5.23041 60.58719,16.48768 66.45183,48.02325 2.7275,14.66638 -2.31578,31.52774 -17.84645,59.66667 -9.71356,17.59929 -37.92587,60.66666 -39.74115,60.66666 -0.70842,0 -8.11863,-10.35 -16.46711,-23 z m 27.6483,-10.66666 c 21.21057,-32.59558 34.98679,-60.96793 36.44008,-75.049 1.29939,-12.58985 -4.63675,-26.97801 -15.14675,-36.71312 -6.92264,-6.41224 -10.70953,-8.61043 -19.15321,-11.11793 -25.49485,-7.57116 -51.80926,7.17556 -59.40044,33.28826 -4.17558,14.36351 -0.0457,29.25454 16.24986,58.59179 11.18114,20.12966 27.95709,46 29.82927,46 0.78123,0 5.81276,-6.75 11.18119,-15 z"
       id="path36"
       inkscape:connector-curvature="0" />
    <path
       style="fill:#2a2a2a;stroke-width:1.33333325"
       d="m 258.33216,337.73184 c -27.09452,-38.71843 -46.6377,-76.8406 -48.49332,-94.59406 -1.61384,-15.44038 5.29079,-32.81146 17.71071,-44.5577 22.02557,-20.83086 56.20864,-20.83086 78.23421,0 12.41992,11.74624 19.32455,29.11732 17.71071,44.5577 -1.10851,10.60557 -8.4644,28.63686 -20.20539,49.52887 -10.90133,19.39792 -33.79983,54.21819 -36.15132,54.97296 -0.84089,0.26992 -4.80341,-4.18859 -8.8056,-9.90777 z m 17.44516,-15.09923 c 18.59317,-28.47386 32.32489,-53.82218 37.63499,-69.47302 7.48258,-22.05395 -3.74916,-46.96835 -26.10807,-57.91325 -7.10996,-3.48039 -9.33909,-3.90184 -20.63759,-3.90184 -11.29849,0 -13.52762,0.42145 -20.63758,3.90184 -22.44072,10.98494 -33.60613,35.75725 -26.10277,57.91325 7.18744,21.2231 41.55497,80.17373 46.74035,80.17373 1.18526,0 5.21003,-4.72719 9.11067,-10.70071 z"
       id="path34"
       inkscape:connector-curvature="0" />
    <path
       style="fill:#1f1f1f;stroke-width:1.33333325"
       d="m 252.4567,326.33332 c -22.10207,-33.40631 -35.65643,-59.12296 -39.90746,-75.71638 -6.57576,-25.66766 9.6834,-54.43651 35.90982,-63.5386 9.25126,-3.21072 27.16393,-3.21072 36.41519,0 26.22642,9.10209 42.48558,37.87094 35.90982,63.5386 -2.43716,9.51321 -11.01708,28.35813 -20.34908,44.69467 -7.21783,12.63551 -32.67774,51.35504 -33.76834,51.35504 -0.41643,0 -6.81091,-9.15 -14.20995,-20.33333 z m 28.04034,-8.66667 c 18.88,-28.98342 31.91637,-54.17314 35.58285,-68.7555 5.14354,-20.45689 -7.05986,-44.32405 -27.91186,-54.58945 -8.04008,-3.95812 -9.84902,-4.32171 -21.50138,-4.32171 -11.65235,0 -13.46129,0.36359 -21.50137,4.32171 -20.92222,10.29997 -33.07157,34.06813 -27.90926,54.59976 3.66381,14.57178 16.70545,39.76974 35.58025,68.74519 8.28895,12.72468 11.76715,17 13.83038,17 2.06324,0 5.54144,-4.27532 13.83039,-17 z"
       id="path32"
       inkscape:connector-curvature="0" />
  </g>
</svg>
