<?xml version="1.0" encoding="UTF-8" standalone="no"?>
<!-- Created with Inkscape (http://www.inkscape.org/) -->

<svg
   xmlns:dc="http://purl.org/dc/elements/1.1/"
   xmlns:cc="http://creativecommons.org/ns#"
   xmlns:rdf="http://www.w3.org/1999/02/22-rdf-syntax-ns#"
   xmlns:svg="http://www.w3.org/2000/svg"
   xmlns="http://www.w3.org/2000/svg"
   xmlns:sodipodi="http://sodipodi.sourceforge.net/DTD/sodipodi-0.dtd"
   xmlns:inkscape="http://www.inkscape.org/namespaces/inkscape"
   version="1.1"
   id="svg2"
   width="119.84158"
   height="171.90837"
   viewBox="0 0 119.84158 171.90837"
   sodipodi:docname="shelter.svg"
   inkscape:version="0.92.1 r15371">
  <metadata
     id="metadata8">
    <rdf:RDF>
      <cc:Work
         rdf:about="">
        <dc:format>image/svg+xml</dc:format>
        <dc:type
           rdf:resource="http://purl.org/dc/dcmitype/StillImage" />
        <dc:title></dc:title>
      </cc:Work>
    </rdf:RDF>
  </metadata>
  <defs
     id="defs6" />
  <sodipodi:namedview
     pagecolor="#ffffff"
     bordercolor="#666666"
     borderopacity="1"
     objecttolerance="10"
     gridtolerance="10"
     guidetolerance="10"
     inkscape:pageopacity="0"
     inkscape:pageshadow="2"
     inkscape:window-width="640"
     inkscape:window-height="480"
     id="namedview4"
     showgrid="false"
     inkscape:zoom="0.44250002"
     inkscape:cx="59.885241"
     inkscape:cy="85.333324"
     inkscape:window-x="0"
     inkscape:window-y="0"
     inkscape:window-maximized="0"
     inkscape:current-layer="g12" />
  <g
     id="g12"
     transform="translate(-206.78141,-180.09161)">
    <path
       style="fill:#f09e9c;stroke-width:1.33333325"
       d="m 250.2745,330.99999 c -21.84458,-32.81208 -36.2519,-59.75498 -41.48227,-77.57533 -3.86229,-13.15916 -2.11279,-28.35283 4.83541,-41.99351 3.55003,-6.96939 14.95142,-18.87672 22.06807,-23.04736 18.73709,-10.98066 43.2048,-10.98066 61.94189,0 7.11665,4.17064 18.51804,16.07797 22.06807,23.04736 9.55216,18.75276 9.19649,34.28927 -1.3408,58.56884 -10.05662,23.17201 -47.14566,81.99999 -51.69822,81.99999 -1.63251,0 -6.92735,-6.78321 -16.39215,-20.99999 z m 24.68421,-12.66667 c 19.0304,-29.05901 32.74456,-55.44308 36.61105,-70.43445 2.12837,-8.25221 2.12749,-9.31021 -0.0151,-17.99241 -2.94312,-11.92636 -9.61084,-21.92791 -18.5629,-27.8443 -6.85619,-4.53124 -19.51566,-8.72884 -26.32514,-8.72884 -6.80947,0 -19.46894,4.1976 -26.32514,8.72884 -8.95207,5.91639 -15.61979,15.91794 -18.56291,27.8443 -2.14254,8.6822 -2.14342,9.7402 -0.0151,17.99241 2.61248,10.12925 12.7322,31.67128 22.58192,48.07056 10.5574,17.5775 21.11884,33.36389 22.32119,33.36389 0.59855,0 4.32998,-4.95 8.29206,-11 z m -43.96567,-57.20694 c -2.24348,-2.24348 -2.09232,-5.77418 0.33342,-7.78735 1.51825,-1.26005 1.79829,-3.31188 1.17537,-8.61201 -3.18148,-27.06934 25.32932,-48.42696 49.21241,-36.86536 13.36263,6.46874 22.16343,22.29172 20.46001,36.7851 -0.63212,5.37836 -0.35716,7.4282 1.16594,8.69227 2.5196,2.09108 2.56328,5.86127 0.0917,7.91251 -1.0458,0.86794 -4.43469,1.39141 -7.53087,1.16326 -7.729,-0.56952 -9.12573,-3.13466 -6.18072,-11.35108 2.9223,-8.15301 2.85602,-14.33276 -0.22649,-21.11889 -3.75409,-8.2646 -13.91535,-15.26331 -22.16045,-15.26331 -8.24511,0 -18.40636,6.99871 -22.16045,15.26331 -3.08251,6.78613 -3.14879,12.96588 -0.2265,21.11889 2.97766,8.3075 1.56776,10.79428 -6.42324,11.32932 -3.41157,0.22843 -6.56553,-0.3021 -7.53009,-1.26666 z"
       id="path26"
       inkscape:connector-curvature="0" />
    <path
       style="fill:#a1a1a1;stroke-width:1.33333325"
       d="m 249.75495,329.66665 c -23.07569,-35.00526 -33.41733,-54.00388 -39.90504,-73.30957 -7.97837,-23.7415 0.27855,-48.51836 21.56135,-64.69992 18.0961,-13.75869 44.83442,-15.42367 64.50459,-4.01669 13.39072,7.76544 23.69686,20.59939 28.22472,35.14747 5.44368,17.49056 2.36666,31.65392 -13.54753,62.35847 -11.52896,22.24376 -40.82607,66.85357 -43.90551,66.85357 -1.38425,0 -7.71243,-8.3466 -16.93258,-22.33333 z m 29.95141,-18.43654 c 14.18013,-22.1315 29.94583,-53.49819 32.17876,-64.02131 3.03103,-14.28434 -1.57401,-28.96786 -12.51671,-39.91057 -18.25597,-18.25596 -47.14754,-18.25596 -65.40351,0 -6.93094,6.93095 -10.3998,13.41201 -12.68592,23.70176 -2.27588,10.24369 -0.37188,18.78431 8.2486,37 11.67129,24.66228 34.60482,61.94961 37.51426,60.99394 0.89365,-0.29353 6.59268,-8.28725 12.66452,-17.76382 z m -47.70637,-53.75413 c 0,-1.38822 0.83444,-2.84423 1.85431,-3.23559 1.4261,-0.54724 1.69233,-2.72953 1.15285,-9.45027 -1.03235,-12.86093 1.40465,-20.02236 9.58569,-28.16864 10.41575,-10.3715 23.24824,-12.79682 36.08352,-6.81974 13.42813,6.25316 20.14615,18.377 19.00679,34.30109 -0.51872,7.24968 -0.25052,9.60812 1.15386,10.14703 1.0063,0.38616 1.82964,1.8379 1.82964,3.22612 0,2.11141 -1.00466,2.52401 -6.14588,2.52401 h -6.14586 l 0.82457,-5 c 0.45351,-2.75 1.18788,-8.08276 1.63192,-11.85059 3.51163,-29.797 -35.35337,-41.40846 -49.06801,-14.65976 -2.68369,5.2342 -2.79647,13.1563 -0.3774,26.51035 l 0.90575,5 h -6.14587 c -5.14121,0 -6.14588,-0.4126 -6.14588,-2.52401 z"
       id="path24"
       inkscape:connector-curvature="0" />
    <path
       style="fill:#e85b58;stroke-width:1.33333325"
       d="m 250.19954,327.66665 c -33.59078,-50.89824 -44.8151,-77.46651 -41.12048,-97.33333 4.6264,-24.87729 23.77381,-43.74957 48.72336,-48.02325 30.53494,-5.23041 60.58719,16.48768 66.45183,48.02325 2.7275,14.66638 -2.31578,31.52774 -17.84645,59.66667 -9.71356,17.59929 -37.92587,60.66666 -39.74115,60.66666 -0.70842,0 -8.11863,-10.35 -16.46711,-23 z m 27.6483,-10.66666 c 21.21057,-32.59558 34.98679,-60.96793 36.44008,-75.049 1.29939,-12.58985 -4.63675,-26.97801 -15.14675,-36.71312 -6.92264,-6.41224 -10.70953,-8.61043 -19.15321,-11.11793 -25.49485,-7.57116 -51.80926,7.17556 -59.40044,33.28826 -4.17558,14.36351 -0.0457,29.25454 16.24986,58.59179 11.18114,20.12966 27.95709,46 29.82927,46 0.78123,0 5.81276,-6.75 11.18119,-15 z m -45.84785,-59.52401 c 0,-1.38822 0.83444,-2.84423 1.85431,-3.23559 1.4261,-0.54724 1.69233,-2.72953 1.15285,-9.45027 -1.03235,-12.86093 1.40465,-20.02236 9.58569,-28.16864 10.41575,-10.3715 23.24824,-12.79682 36.08352,-6.81974 13.42813,6.25316 20.14615,18.377 19.00679,34.30109 -0.51872,7.24968 -0.25052,9.60812 1.15386,10.14703 1.0063,0.38616 1.82964,1.8379 1.82964,3.22612 0,2.11141 -1.00466,2.52401 -6.14588,2.52401 h -6.14586 l 0.82457,-5 c 0.45351,-2.75 1.18788,-8.08276 1.63192,-11.85059 3.51163,-29.797 -35.35337,-41.40846 -49.06801,-14.65976 -2.68369,5.2342 -2.79647,13.1563 -0.3774,26.51035 l 0.90575,5 h -6.14587 c -5.14121,0 -6.14588,-0.4126 -6.14588,-2.52401 z"
       id="path22"
       inkscape:connector-curvature="0" />
    <path
       style="fill:#e33a36;stroke-width:1.33333325"
       d="m 250.19954,327.66665 c -33.59078,-50.89824 -44.8151,-77.46651 -41.12048,-97.33333 4.6264,-24.87729 23.77381,-43.74957 48.72336,-48.02325 30.53494,-5.23041 60.58719,16.48768 66.45183,48.02325 2.7275,14.66638 -2.31578,31.52774 -17.84645,59.66667 -9.71356,17.59929 -37.92587,60.66666 -39.74115,60.66666 -0.70842,0 -8.11863,-10.35 -16.46711,-23 z m 27.6483,-10.66666 c 21.21057,-32.59558 34.98679,-60.96793 36.44008,-75.049 1.29939,-12.58985 -4.63675,-26.97801 -15.14675,-36.71312 -6.92264,-6.41224 -10.70953,-8.61043 -19.15321,-11.11793 -25.49485,-7.57116 -51.80926,7.17556 -59.40044,33.28826 -4.17558,14.36351 -0.0457,29.25454 16.24986,58.59179 11.18114,20.12966 27.95709,46 29.82927,46 0.78123,0 5.81276,-6.75 11.18119,-15 z m -44.51452,-59.55556 c 0,-0.67221 0.73651,-1.46772 1.63668,-1.76777 1.13726,-0.3791 1.64584,-4.40975 1.66667,-13.20866 0.0277,-11.74017 0.32408,-13.13929 4.06524,-19.19697 2.5052,-4.05644 6.51001,-8.06392 10.56211,-10.56912 5.67336,-3.50757 7.77469,-4.03525 16.0693,-4.03525 8.29461,0 10.39595,0.52768 16.06931,4.03525 4.05209,2.5052 8.0569,6.51268 10.5621,10.56912 3.74116,6.05768 4.03744,7.4568 4.06524,19.19697 0.0208,8.79891 0.52942,12.82956 1.66667,13.20866 3.41712,1.13904 1.43823,2.99 -3.19665,2.99 -4.7964,0 -4.82468,-0.0331 -3.70086,-4.33334 0.62287,-2.38333 1.14787,-8.88626 1.16667,-14.45096 0.03,-8.89261 -0.40715,-10.74913 -3.61084,-15.33333 -5.66149,-8.10108 -11.96212,-11.69361 -21.51308,-12.26647 -6.69002,-0.40126 -9.26525,0.0921 -14.17522,2.71591 -7.31052,3.90656 -12.96003,11.62912 -14.38846,19.66819 -0.99761,5.61456 -0.70981,8.86941 1.73899,19.66666 0.96905,4.2727 0.91517,4.33334 -3.85053,4.33334 -2.65834,0 -4.83334,-0.55 -4.83334,-1.22223 z"
       id="path20"
       inkscape:connector-curvature="0" />
    <path
       style="fill:#5d5d5d;stroke-width:1.33333325"
       d="m 250.19954,327.66665 c -33.59078,-50.89824 -44.8151,-77.46651 -41.12048,-97.33333 4.6264,-24.87729 23.77381,-43.74957 48.72336,-48.02325 30.53494,-5.23041 60.58719,16.48768 66.45183,48.02325 2.7275,14.66638 -2.31578,31.52774 -17.84645,59.66667 -9.71356,17.59929 -37.92587,60.66666 -39.74115,60.66666 -0.70842,0 -8.11863,-10.35 -16.46711,-23 z m 27.6483,-10.66666 c 21.21057,-32.59558 34.98679,-60.96793 36.44008,-75.049 1.29939,-12.58985 -4.63675,-26.97801 -15.14675,-36.71312 -6.92264,-6.41224 -10.70953,-8.61043 -19.15321,-11.11793 -25.49485,-7.57116 -51.80926,7.17556 -59.40044,33.28826 -4.17558,14.36351 -0.0457,29.25454 16.24986,58.59179 11.18114,20.12966 27.95709,46 29.82927,46 0.78123,0 5.81276,-6.75 11.18119,-15 z"
       id="path18"
       inkscape:connector-curvature="0" />
    <path
       style="fill:#2a2a2a;stroke-width:1.33333325"
       d="m 258.33216,337.73184 c -27.09452,-38.71843 -46.6377,-76.8406 -48.49332,-94.59406 -1.61384,-15.44038 5.29079,-32.81146 17.71071,-44.5577 22.02557,-20.83086 56.20864,-20.83086 78.23421,0 12.41992,11.74624 19.32455,29.11732 17.71071,44.5577 -1.10851,10.60557 -8.4644,28.63686 -20.20539,49.52887 -10.90133,19.39792 -33.79983,54.21819 -36.15132,54.97296 -0.84089,0.26992 -4.80341,-4.18859 -8.8056,-9.90777 z m 17.44516,-15.09923 c 18.59317,-28.47386 32.32489,-53.82218 37.63499,-69.47302 7.48258,-22.05395 -3.74916,-46.96835 -26.10807,-57.91325 -7.10996,-3.48039 -9.33909,-3.90184 -20.63759,-3.90184 -11.29849,0 -13.52762,0.42145 -20.63758,3.90184 -22.44072,10.98494 -33.60613,35.75725 -26.10277,57.91325 7.18744,21.2231 41.55497,80.17373 46.74035,80.17373 1.18526,0 5.21003,-4.72719 9.11067,-10.70071 z"
       id="path16"
       inkscape:connector-curvature="0" />
    <path
       style="fill:#1f1f1f;stroke-width:1.33333325"
       d="m 252.4567,326.33332 c -22.10207,-33.40631 -35.65643,-59.12296 -39.90746,-75.71638 -6.57576,-25.66766 9.6834,-54.43651 35.90982,-63.5386 9.25126,-3.21072 27.16393,-3.21072 36.41519,0 26.22642,9.10209 42.48558,37.87094 35.90982,63.5386 -2.43716,9.51321 -11.01708,28.35813 -20.34908,44.69467 -7.21783,12.63551 -32.67774,51.35504 -33.76834,51.35504 -0.41643,0 -6.81091,-9.15 -14.20995,-20.33333 z m 28.04034,-8.66667 c 18.88,-28.98342 31.91637,-54.17314 35.58285,-68.7555 5.14354,-20.45689 -7.05986,-44.32405 -27.91186,-54.58945 -8.04008,-3.95812 -9.84902,-4.32171 -21.50138,-4.32171 -11.65235,0 -13.46129,0.36359 -21.50137,4.32171 -20.92222,10.29997 -33.07157,34.06813 -27.90926,54.59976 3.66381,14.57178 16.70545,39.76974 35.58025,68.74519 8.28895,12.72468 11.76715,17 13.83038,17 2.06324,0 5.54144,-4.27532 13.83039,-17 z"
       id="path14"
       inkscape:connector-curvature="0" />
  </g>
</svg>
